<svg width="993" height="191" viewBox="0 0 993 191" fill="none" xmlns="http://www.w3.org/2000/svg">
<g clip-path="url(#clip0_2911_10707)">
<path d="M287.006 121.893L251.632 82.2673V122.076H236.641V0H241.632C247.154 0 251.632 4.47715 251.632 10V71.5726L272.605 47.394C281.317 37.3506 293.958 31.5815 307.253 31.5815V31.5815L264.794 76.5087L307.39 121.756L287.006 121.893Z" fill="#224B99" stroke="#224B99" stroke-linejoin="round"/>
<path d="M349.762 34.2782C355.212 31.2777 361.368 31.4396 367.587 31.6275V39.9154C367.587 42.2279 365.712 44.1025 363.399 44.1025V44.1025C350.899 45.1025 338.473 54.7537 338.473 73.0353V122.076H323.391V31.6274H328.382C333.904 31.6274 338.382 36.1046 338.382 41.6274V46.2984C340.896 41.25 344.858 37.0652 349.762 34.2782Z" fill="#224B99" stroke="#224B99" stroke-linejoin="round"/>
<path d="M410.277 44.3015V97.4554C409.962 100.751 410.964 104.038 413.065 106.596C415.83 108.706 419.294 109.686 422.754 109.338H423.769C429.292 109.338 433.769 113.816 433.769 119.338V121.998H420.286C413.537 122.511 406.844 120.454 401.548 116.24C399.251 113.691 397.508 110.694 396.43 107.436C395.352 104.179 394.963 100.734 395.286 97.3183V44.3015H383.586V41.9614C383.586 36.4386 388.063 31.9614 393.586 31.9614H395.286V9.10938H400.277C405.8 9.10938 410.277 13.5865 410.277 19.1094V31.9614H433.769V34.3015C433.769 39.8244 429.292 44.3015 423.769 44.3015H410.277Z" fill="#224B99" stroke="#224B99" stroke-linejoin="round"/>
<path d="M476.141 34.2782C481.591 31.2777 487.747 31.4396 493.965 31.6275V39.9154C493.965 42.2279 492.091 44.1025 489.778 44.1025V44.1025C477.278 45.1025 464.852 54.7537 464.852 73.0353V122.076H449.77V31.6274H454.76C460.283 31.6274 464.76 36.1046 464.76 41.6274V46.2984C467.275 41.25 471.237 37.0652 476.141 34.2782Z" fill="#224B99" stroke="#224B99" stroke-linejoin="round"/>
<path d="M514.907 31.9023C520.43 31.9023 524.907 36.3795 524.907 41.9023V122.076H510.008V31.9023H514.907Z" fill="#224B99" stroke="#224B99" stroke-linejoin="round"/>
<path d="M525.496 7.29688L522.561 14.4683C521.706 16.5582 521.909 18.9319 523.105 20.8467V20.8467C523.499 21.4762 523.99 22.0392 524.559 22.5149L525.496 23.2969H509.965L509.965 22.8239C509.967 14.2479 516.92 7.29688 525.496 7.29688V7.29688Z" fill="#224B99" stroke="#224B99" stroke-linejoin="round"/>
<path d="M668.873 34.6433C674.41 37.6047 678.931 42.1578 681.853 47.7146C685.147 54.2829 686.719 61.5795 686.424 68.9213V122.075H671.616V71.0694C672.132 63.589 669.76 56.1954 664.989 50.4112C662.658 48.0098 659.842 46.1322 656.73 44.9029C653.617 43.6736 650.278 43.1208 646.935 43.2813C643.489 43.1158 640.047 43.6956 636.845 44.9813C633.642 46.2669 630.755 48.2281 628.38 50.7311C623.397 56.8081 620.913 64.5534 621.433 72.3948V122.075H606.624V71.0694C607.14 63.589 604.769 56.1954 599.997 50.4112C597.666 48.0098 594.851 46.1322 591.738 44.9029C588.626 43.6736 585.287 43.1208 581.944 43.2813C578.497 43.1158 575.056 43.6956 571.853 44.9813C568.651 46.2669 565.764 48.2281 563.388 50.7311C558.406 56.8081 555.922 64.5534 556.441 72.3948V122.075H541.496V31.901H546.441C551.964 31.901 556.441 36.3782 556.441 41.901V44.9267C559.326 40.2599 563.458 36.4924 568.37 34.0491C573.511 31.5043 579.179 30.2048 584.915 30.2557C591.944 30.1061 598.881 31.8758 604.979 35.3745C610.832 38.8059 615.405 44.0532 618.005 50.3198C620.374 44.1291 624.773 38.9249 630.482 35.5573C636.34 32.0228 643.065 30.1872 649.906 30.2557C656.496 30.1104 663.017 31.6189 668.873 34.6433Z" fill="#224B99" stroke="#224B99" stroke-linejoin="round"/>
<path d="M708.183 50.8568C711.692 44.1367 717.011 38.5324 723.539 34.6776C730.15 30.8175 737.685 28.827 745.34 28.9189C752.533 28.7307 759.641 30.4999 765.907 34.0377C771.343 37.0246 775.85 41.4526 778.932 46.8349V30.3814H784.06C789.583 30.3814 794.06 34.8585 794.06 40.3814V120.556H778.932V103.782C775.748 109.235 771.175 113.745 765.678 116.854C759.427 120.436 752.314 122.238 745.111 122.064C737.463 122.14 729.945 120.083 723.402 116.122C716.855 112.103 711.555 106.343 708.091 99.4859C704.249 91.9657 702.318 83.6149 702.47 75.1714C702.314 66.7167 704.278 58.3575 708.183 50.8568ZM774.819 57.5296C772.273 52.6993 768.426 48.6779 763.713 45.9208C759.023 43.2457 753.71 41.8582 748.311 41.8988C742.945 41.843 737.661 43.2153 733 45.8751C728.308 48.5895 724.488 52.5847 721.985 57.3925C719.133 62.8759 717.718 68.9927 717.872 75.1714C717.721 81.4229 719.135 87.6128 721.985 93.1788C724.497 98.0152 728.313 102.052 733 104.833C737.644 107.544 742.934 108.949 748.311 108.901C753.716 108.948 759.035 107.543 763.713 104.833C768.448 102.083 772.3 98.0406 774.819 93.1788C777.658 87.6578 779.072 81.515 778.932 75.3085C779.086 69.1298 777.671 63.013 774.819 57.5296Z" fill="#224B99" stroke="#224B99" stroke-linejoin="round"/>
<path d="M847.545 1.14453C853.068 1.14453 857.545 5.62168 857.545 11.1445V13.2104H845.799V109.189H847.545C853.068 109.189 857.545 113.666 857.545 119.189V121.255H829.977C824.454 121.255 819.977 116.778 819.977 111.255V109.189H831.723V13.2104H829.977C824.454 13.2104 819.977 8.73325 819.977 3.21041V1.14453H847.545Z" fill="#5D61E1"/>
<path d="M984.056 138.029C971.589 138.029 959.633 133.077 950.818 124.262L941.734 115.177C936.166 116.713 930.415 117.482 924.64 117.462C914.449 117.586 904.406 115.016 895.527 110.012C886.808 105.057 879.602 97.8207 874.686 89.0798C869.677 79.806 867.055 69.432 867.055 58.8923C867.055 48.3526 869.677 37.9785 874.686 28.7047C879.605 19.9779 886.811 12.7569 895.527 7.81794C904.476 2.90113 914.521 0.323242 924.732 0.323242C934.942 0.323242 944.988 2.90113 953.937 7.81794C962.619 12.7143 969.782 19.9098 974.641 28.6133C979.561 37.8208 982.165 48.0877 982.229 58.5271C982.292 68.9665 979.813 79.2645 975.006 88.5314C970.36 97.1092 963.473 104.265 955.079 109.235L984.056 138.029ZM887.803 82.9098C891.225 89.5725 896.493 95.1097 902.976 98.8605C909.585 102.547 917.027 104.482 924.595 104.482C932.162 104.482 939.604 102.547 946.213 98.8605C952.696 95.1097 957.964 89.5725 961.386 82.9098C964.996 75.4017 966.871 67.1775 966.871 58.8466C966.871 50.5157 964.996 42.2915 961.386 34.7834C957.941 28.1902 952.716 22.6956 946.304 18.924C939.662 15.2385 932.191 13.3046 924.595 13.3046C916.998 13.3046 909.527 15.2385 902.885 18.924C896.473 22.6956 891.248 28.1902 887.803 34.7834C884.193 42.2915 882.318 50.5157 882.318 58.8466C882.318 67.1775 884.193 75.4017 887.803 82.9098Z" fill="#5D61E1"/>
<path d="M847.545 1.14453C853.068 1.14453 857.545 5.62168 857.545 11.1445V13.2104H845.799V109.189H847.545C853.068 109.189 857.545 113.666 857.545 119.189V121.255H829.977C824.454 121.255 819.977 116.778 819.977 111.255V109.189H831.723V13.2104H829.977C824.454 13.2104 819.977 8.73325 819.977 3.21041V1.14453H847.545Z" stroke="#5D61E1" stroke-linejoin="round"/>
<path d="M984.056 138.029C971.589 138.029 959.633 133.077 950.818 124.262L941.734 115.177C936.166 116.713 930.415 117.482 924.64 117.462C914.449 117.586 904.406 115.016 895.527 110.012C886.808 105.057 879.602 97.8207 874.686 89.0798C869.677 79.806 867.055 69.432 867.055 58.8923C867.055 48.3526 869.677 37.9785 874.686 28.7047C879.605 19.9779 886.811 12.7569 895.527 7.81794C904.476 2.90113 914.521 0.323242 924.732 0.323242C934.942 0.323242 944.988 2.90113 953.937 7.81794C962.619 12.7143 969.782 19.9098 974.641 28.6133C979.561 37.8208 982.165 48.0877 982.229 58.5271C982.292 68.9665 979.813 79.2645 975.006 88.5314C970.36 97.1092 963.473 104.265 955.079 109.235L984.056 138.029ZM887.803 82.9098C891.225 89.5725 896.493 95.1097 902.976 98.8605C909.585 102.547 917.027 104.482 924.595 104.482C932.162 104.482 939.604 102.547 946.213 98.8605C952.696 95.1097 957.964 89.5725 961.386 82.9098C964.996 75.4017 966.871 67.1775 966.871 58.8466C966.871 50.5157 964.996 42.2915 961.386 34.7834C957.941 28.1902 952.716 22.6956 946.304 18.924C939.662 15.2385 932.191 13.3046 924.595 13.3046C916.998 13.3046 909.527 15.2385 902.885 18.924C896.473 22.6956 891.248 28.1902 887.803 34.7834C884.193 42.2915 882.318 50.5157 882.318 58.8466C882.318 67.1775 884.193 75.4017 887.803 82.9098Z" stroke="#5D61E1" stroke-linejoin="round"/>
<path d="M236.883 157.236C236.883 153.506 237.724 150.161 239.406 147.199C241.088 144.201 243.373 141.861 246.261 140.179C249.186 138.497 252.422 137.656 255.969 137.656C260.137 137.656 263.775 138.662 266.883 140.673C269.991 142.684 272.258 145.536 273.684 149.228H267.706C266.645 146.925 265.11 145.152 263.099 143.908C261.124 142.665 258.748 142.044 255.969 142.044C253.3 142.044 250.905 142.665 248.784 143.908C246.663 145.152 245 146.925 243.793 149.228C242.587 151.495 241.983 154.164 241.983 157.236C241.983 160.271 242.587 162.94 243.793 165.243C245 167.51 246.663 169.265 248.784 170.508C250.905 171.751 253.3 172.373 255.969 172.373C258.748 172.373 261.124 171.77 263.099 170.563C265.11 169.32 266.645 167.547 267.706 165.243H273.684C272.258 168.899 269.991 171.733 266.883 173.744C263.775 175.718 260.137 176.706 255.969 176.706C252.422 176.706 249.186 175.883 246.261 174.238C243.373 172.556 241.088 170.234 239.406 167.272C237.724 164.311 236.883 160.965 236.883 157.236Z" fill="#224B99"/>
<path d="M303.819 176.87C301.003 176.87 298.444 176.23 296.141 174.951C293.874 173.671 292.082 171.861 290.766 169.521C289.486 167.144 288.846 164.402 288.846 161.294C288.846 158.223 289.504 155.517 290.821 153.177C292.173 150.801 294.002 148.991 296.305 147.748C298.609 146.468 301.186 145.828 304.038 145.828C306.89 145.828 309.468 146.468 311.771 147.748C314.075 148.991 315.885 150.782 317.201 153.122C318.554 155.462 319.23 158.186 319.23 161.294C319.23 164.402 318.536 167.144 317.146 169.521C315.793 171.861 313.947 173.671 311.607 174.951C309.267 176.23 306.671 176.87 303.819 176.87ZM303.819 172.483C305.61 172.483 307.292 172.062 308.865 171.221C310.437 170.38 311.698 169.119 312.649 167.437C313.636 165.755 314.13 163.707 314.13 161.294C314.13 158.881 313.654 156.834 312.704 155.152C311.753 153.47 310.51 152.227 308.974 151.422C307.439 150.581 305.775 150.161 303.983 150.161C302.155 150.161 300.473 150.581 298.938 151.422C297.439 152.227 296.232 153.47 295.318 155.152C294.404 156.834 293.947 158.881 293.947 161.294C293.947 163.744 294.386 165.81 295.263 167.492C296.177 169.174 297.384 170.435 298.883 171.276C300.382 172.08 302.027 172.483 303.819 172.483Z" fill="#224B99"/>
<path d="M347.785 145.828C350.381 145.828 352.648 146.395 354.586 147.528C356.56 148.662 358.023 150.088 358.974 151.806V146.322H364.019V177.035C364.019 179.777 363.434 182.208 362.264 184.329C361.094 186.486 359.412 188.168 357.219 189.375C355.061 190.581 352.538 191.185 349.65 191.185C345.701 191.185 342.41 190.252 339.778 188.388C337.145 186.523 335.591 183.982 335.116 180.764H340.052C340.601 182.592 341.734 184.055 343.452 185.152C345.171 186.285 347.237 186.852 349.65 186.852C352.392 186.852 354.623 185.993 356.341 184.274C358.096 182.556 358.974 180.143 358.974 177.035V170.728C357.986 172.483 356.524 173.945 354.586 175.115C352.648 176.285 350.381 176.87 347.785 176.87C345.116 176.87 342.685 176.212 340.491 174.896C338.334 173.58 336.633 171.733 335.39 169.356C334.147 166.98 333.526 164.274 333.526 161.239C333.526 158.168 334.147 155.481 335.39 153.177C336.633 150.837 338.334 149.027 340.491 147.748C342.685 146.468 345.116 145.828 347.785 145.828ZM358.974 161.294C358.974 159.027 358.517 157.053 357.602 155.371C356.688 153.689 355.445 152.409 353.873 151.532C352.337 150.618 350.637 150.161 348.772 150.161C346.908 150.161 345.207 150.6 343.672 151.477C342.136 152.355 340.911 153.634 339.997 155.316C339.083 156.998 338.626 158.973 338.626 161.239C338.626 163.543 339.083 165.554 339.997 167.272C340.911 168.954 342.136 170.252 343.672 171.166C345.207 172.044 346.908 172.483 348.772 172.483C350.637 172.483 352.337 172.044 353.873 171.166C355.445 170.252 356.688 168.954 357.602 167.272C358.517 165.554 358.974 163.561 358.974 161.294Z" fill="#224B99"/>
<path d="M396.695 145.773C400.351 145.773 403.313 146.888 405.58 149.119C407.847 151.312 408.98 154.494 408.98 158.662V176.377H404.044V159.375C404.044 156.377 403.295 154.091 401.795 152.519C400.296 150.91 398.249 150.106 395.653 150.106C393.02 150.106 390.918 150.929 389.346 152.574C387.81 154.219 387.042 156.614 387.042 159.759V176.377H382.051V146.322H387.042V150.6C388.029 149.064 389.364 147.876 391.046 147.035C392.764 146.194 394.647 145.773 396.695 145.773Z" fill="#224B99"/>
<path d="M429.308 141.44C428.358 141.44 427.553 141.111 426.895 140.453C426.237 139.795 425.908 138.991 425.908 138.04C425.908 137.089 426.237 136.285 426.895 135.627C427.553 134.969 428.358 134.64 429.308 134.64C430.222 134.64 430.99 134.969 431.612 135.627C432.27 136.285 432.599 137.089 432.599 138.04C432.599 138.991 432.27 139.795 431.612 140.453C430.99 141.111 430.222 141.44 429.308 141.44ZM431.721 146.322V176.377H426.731V146.322H431.721Z" fill="#224B99"/>
<path d="M455.913 150.435V168.15C455.913 169.612 456.224 170.654 456.846 171.276C457.467 171.861 458.546 172.154 460.081 172.154H463.756V176.377H459.259C456.48 176.377 454.396 175.737 453.006 174.457C451.617 173.177 450.922 171.075 450.922 168.15V150.435H447.028V146.322H450.922V138.753H455.913V146.322H463.756V150.435H455.913Z" fill="#224B99"/>
<path d="M481.979 141.44C481.028 141.44 480.224 141.111 479.566 140.453C478.907 139.795 478.578 138.991 478.578 138.04C478.578 137.089 478.907 136.285 479.566 135.627C480.224 134.969 481.028 134.64 481.979 134.64C482.893 134.64 483.661 134.969 484.282 135.627C484.94 136.285 485.269 137.089 485.269 138.04C485.269 138.991 484.94 139.795 484.282 140.453C483.661 141.111 482.893 141.44 481.979 141.44ZM484.392 146.322V176.377H479.401V146.322H484.392Z" fill="#224B99"/>
<path d="M513.684 171.77L523.008 146.322H528.328L516.536 176.377H510.723L498.931 146.322H504.306L513.684 171.77Z" fill="#224B99"/>
<path d="M570.259 160.197C570.259 161.148 570.204 162.154 570.095 163.214H546.073C546.255 166.175 547.261 168.497 549.089 170.179C550.954 171.824 553.202 172.647 555.835 172.647C557.992 172.647 559.784 172.154 561.21 171.166C562.672 170.143 563.696 168.79 564.281 167.108H569.656C568.852 169.996 567.243 172.355 564.83 174.183C562.416 175.974 559.418 176.87 555.835 176.87C552.983 176.87 550.424 176.23 548.157 174.951C545.926 173.671 544.171 171.861 542.892 169.521C541.612 167.144 540.972 164.402 540.972 161.294C540.972 158.186 541.594 155.462 542.837 153.122C544.08 150.782 545.817 148.991 548.047 147.748C550.314 146.468 552.91 145.828 555.835 145.828C558.687 145.828 561.21 146.45 563.404 147.693C565.597 148.936 567.279 150.654 568.449 152.848C569.656 155.005 570.259 157.455 570.259 160.197ZM565.104 159.155C565.104 157.254 564.683 155.627 563.842 154.274C563.001 152.885 561.85 151.843 560.387 151.148C558.961 150.417 557.371 150.051 555.616 150.051C553.093 150.051 550.936 150.855 549.144 152.464C547.389 154.073 546.383 156.303 546.128 159.155H565.104Z" fill="#224B99"/>
<path d="M622.785 176.761C620.262 176.761 617.995 176.322 615.984 175.444C614.01 174.53 612.456 173.287 611.323 171.715C610.189 170.106 609.604 168.26 609.568 166.175H614.888C615.07 167.967 615.802 169.484 617.081 170.728C618.398 171.934 620.299 172.537 622.785 172.537C625.162 172.537 627.027 171.952 628.379 170.782C629.769 169.576 630.464 168.04 630.464 166.175C630.464 164.713 630.061 163.525 629.257 162.611C628.453 161.696 627.447 161.002 626.24 160.526C625.034 160.051 623.407 159.539 621.359 158.991C618.836 158.333 616.807 157.675 615.272 157.016C613.772 156.358 612.474 155.334 611.378 153.945C610.317 152.519 609.787 150.618 609.787 148.241C609.787 146.157 610.317 144.311 611.378 142.702C612.438 141.093 613.919 139.85 615.82 138.972C617.758 138.095 619.97 137.656 622.456 137.656C626.039 137.656 628.964 138.552 631.231 140.344C633.535 142.135 634.833 144.512 635.125 147.473H629.641C629.458 146.011 628.69 144.731 627.337 143.634C625.985 142.501 624.193 141.934 621.963 141.934C619.878 141.934 618.178 142.482 616.862 143.579C615.546 144.64 614.888 146.139 614.888 148.077C614.888 149.466 615.272 150.6 616.039 151.477C616.844 152.355 617.813 153.031 618.946 153.506C620.116 153.945 621.743 154.457 623.827 155.042C626.35 155.737 628.379 156.431 629.915 157.126C631.451 157.784 632.767 158.826 633.864 160.252C634.961 161.642 635.509 163.543 635.509 165.956C635.509 167.821 635.016 169.576 634.028 171.221C633.041 172.867 631.579 174.201 629.641 175.225C627.703 176.249 625.418 176.761 622.785 176.761Z" fill="#224B99"/>
<path d="M665.56 176.87C662.744 176.87 660.185 176.23 657.881 174.951C655.614 173.671 653.823 171.861 652.506 169.521C651.227 167.144 650.587 164.402 650.587 161.294C650.587 158.223 651.245 155.517 652.561 153.177C653.914 150.801 655.742 148.991 658.046 147.748C660.349 146.468 662.927 145.828 665.779 145.828C668.631 145.828 671.209 146.468 673.512 147.748C675.816 148.991 677.625 150.782 678.942 153.122C680.295 155.462 680.971 158.186 680.971 161.294C680.971 164.402 680.276 167.144 678.887 169.521C677.534 171.861 675.688 173.671 673.348 174.951C671.007 176.23 668.411 176.87 665.56 176.87ZM665.56 172.483C667.351 172.483 669.033 172.062 670.605 171.221C672.178 170.38 673.439 169.119 674.39 167.437C675.377 165.755 675.87 163.707 675.87 161.294C675.87 158.881 675.395 156.834 674.444 155.152C673.494 153.47 672.251 152.227 670.715 151.422C669.179 150.581 667.516 150.161 665.724 150.161C663.896 150.161 662.214 150.581 660.678 151.422C659.179 152.227 657.973 153.47 657.059 155.152C656.145 156.834 655.687 158.881 655.687 161.294C655.687 163.744 656.126 165.81 657.004 167.492C657.918 169.174 659.124 170.435 660.624 171.276C662.123 172.08 663.768 172.483 665.56 172.483Z" fill="#224B99"/>
<path d="M702.122 135.791V176.377H697.131V135.791H702.122Z" fill="#224B99"/>
<path d="M746.88 146.322V176.377H741.89V171.934C740.939 173.47 739.604 174.676 737.886 175.554C736.204 176.395 734.339 176.815 732.292 176.815C729.952 176.815 727.849 176.34 725.984 175.389C724.12 174.402 722.639 172.94 721.542 171.002C720.482 169.064 719.952 166.706 719.952 163.927V146.322H724.888V163.269C724.888 166.23 725.637 168.516 727.136 170.124C728.635 171.697 730.683 172.483 733.279 172.483C735.948 172.483 738.05 171.66 739.586 170.015C741.122 168.369 741.89 165.974 741.89 162.83V146.322H746.88Z" fill="#224B99"/>
<path d="M770.993 150.435V168.15C770.993 169.612 771.304 170.654 771.925 171.276C772.547 171.861 773.625 172.154 775.161 172.154H778.836V176.377H774.338C771.56 176.377 769.475 175.737 768.086 174.457C766.697 173.177 766.002 171.075 766.002 168.15V150.435H762.108V146.322H766.002V138.753H770.993V146.322H778.836V150.435H770.993Z" fill="#224B99"/>
<path d="M797.058 141.44C796.108 141.44 795.303 141.111 794.645 140.453C793.987 139.795 793.658 138.991 793.658 138.04C793.658 137.089 793.987 136.285 794.645 135.627C795.303 134.969 796.108 134.64 797.058 134.64C797.972 134.64 798.74 134.969 799.362 135.627C800.02 136.285 800.349 137.089 800.349 138.04C800.349 138.991 800.02 139.795 799.362 140.453C798.74 141.111 797.972 141.44 797.058 141.44ZM799.471 146.322V176.377H794.481V146.322H799.471Z" fill="#224B99"/>
<path d="M830.683 176.87C827.868 176.87 825.309 176.23 823.005 174.951C820.738 173.671 818.947 171.861 817.63 169.521C816.351 167.144 815.711 164.402 815.711 161.294C815.711 158.223 816.369 155.517 817.685 153.177C819.038 150.801 820.866 148.991 823.17 147.748C825.473 146.468 828.051 145.828 830.903 145.828C833.755 145.828 836.332 146.468 838.636 147.748C840.939 148.991 842.749 150.782 844.066 153.122C845.418 155.462 846.095 158.186 846.095 161.294C846.095 164.402 845.4 167.144 844.011 169.521C842.658 171.861 840.811 173.671 838.471 174.951C836.131 176.23 833.535 176.87 830.683 176.87ZM830.683 172.483C832.475 172.483 834.157 172.062 835.729 171.221C837.301 170.38 838.563 169.119 839.513 167.437C840.501 165.755 840.994 163.707 840.994 161.294C840.994 158.881 840.519 156.834 839.568 155.152C838.618 153.47 837.374 152.227 835.839 151.422C834.303 150.581 832.64 150.161 830.848 150.161C829.02 150.161 827.338 150.581 825.802 151.422C824.303 152.227 823.097 153.47 822.182 155.152C821.268 156.834 820.811 158.881 820.811 161.294C820.811 163.744 821.25 165.81 822.128 167.492C823.042 169.174 824.248 170.435 825.747 171.276C827.246 172.08 828.892 172.483 830.683 172.483Z" fill="#224B99"/>
<path d="M876.898 145.773C880.555 145.773 883.516 146.888 885.783 149.119C888.05 151.312 889.184 154.494 889.184 158.662V176.377H884.248V159.375C884.248 156.377 883.498 154.091 881.999 152.519C880.5 150.91 878.452 150.106 875.856 150.106C873.224 150.106 871.121 150.929 869.549 152.574C868.014 154.219 867.246 156.614 867.246 159.759V176.377H862.255V146.322H867.246V150.6C868.233 149.064 869.567 147.876 871.249 147.035C872.968 146.194 874.851 145.773 876.898 145.773Z" fill="#224B99"/>
<path d="M917.574 176.87C915.271 176.87 913.205 176.486 911.377 175.718C909.548 174.914 908.104 173.817 907.044 172.428C905.983 171.002 905.398 169.375 905.289 167.547H910.444C910.59 169.046 911.285 170.271 912.528 171.221C913.808 172.172 915.472 172.647 917.519 172.647C919.42 172.647 920.92 172.227 922.016 171.386C923.113 170.545 923.662 169.484 923.662 168.205C923.662 166.888 923.077 165.92 921.907 165.298C920.737 164.64 918.927 164 916.477 163.378C914.247 162.793 912.419 162.208 910.993 161.623C909.603 161.002 908.397 160.106 907.373 158.936C906.386 157.729 905.892 156.157 905.892 154.219C905.892 152.684 906.349 151.276 907.263 149.996C908.177 148.717 909.475 147.711 911.157 146.98C912.839 146.212 914.759 145.828 916.916 145.828C920.243 145.828 922.931 146.669 924.978 148.351C927.026 150.033 928.123 152.336 928.269 155.261H923.278C923.168 153.689 922.528 152.428 921.358 151.477C920.225 150.526 918.689 150.051 916.751 150.051C914.96 150.051 913.534 150.435 912.473 151.203C911.413 151.971 910.883 152.976 910.883 154.219C910.883 155.206 911.194 156.029 911.815 156.687C912.473 157.309 913.278 157.821 914.229 158.223C915.216 158.589 916.569 159.009 918.287 159.484C920.444 160.069 922.199 160.654 923.552 161.239C924.905 161.788 926.057 162.629 927.007 163.762C927.995 164.896 928.506 166.377 928.543 168.205C928.543 169.85 928.086 171.331 927.172 172.647C926.258 173.963 924.96 175.005 923.278 175.773C921.633 176.505 919.731 176.87 917.574 176.87Z" fill="#224B99"/>
<path d="M166.945 171.075L165.915 158.942M166.945 171.075L151.049 163.521M166.945 171.075L175.158 176.15L173.995 166.178M166.945 171.075L173.995 166.178M165.915 158.942L174.239 158.127M165.915 158.942L165.978 146.277M165.915 158.942L155.489 148.733M165.915 158.942L151.049 163.521M165.915 158.942L173.995 166.178M174.239 158.127L165.978 146.277M174.239 158.127L173.995 166.178M165.978 146.277L155.489 148.733M165.978 146.277L159.457 136.224M165.978 146.277L176.262 138.629M155.489 148.733L159.457 136.224M155.489 148.733L151.049 163.521M155.489 148.733L144.414 136.193M155.489 148.733L144.887 148.306M173.603 127.581L159.457 136.224M173.603 127.581L161.103 121.319M173.603 127.581L176.262 138.629M173.603 127.581L187.952 124.129M173.603 127.581L175.272 113.253M159.457 136.224L146.752 124.769M159.457 136.224L176.262 138.629M159.457 136.224L144.414 136.193M159.457 136.224L161.103 121.319M146.752 124.769L144.414 136.193M146.752 124.769L147.305 124.636M146.752 124.769L134.169 130.598M146.752 124.769L136.148 109.946M176.262 138.629L187.952 124.129M144.414 136.193L144.887 148.306M144.414 136.193L134.169 130.598M144.414 136.193L131.942 144.904M151.049 163.521L144.887 148.306M151.049 163.521L131.942 144.904M144.887 148.306L131.942 144.904M131.942 144.904L134.169 130.598M131.942 144.904L123.054 131.299M134.169 130.598L136.148 109.946M134.169 130.598L123.054 131.299M134.169 130.598L124.301 120.409M161.103 121.319L175.272 113.253M161.103 121.319L147.305 124.636M161.103 121.319L161.255 110.959M161.103 121.319L148 113.879M175.272 113.253L187.952 124.129M175.272 113.253L190.201 110.399M175.272 113.253L180.981 102.542M175.272 113.253L166.43 100.804M175.272 113.253L161.255 110.959M187.952 124.129L190.201 110.399M147.305 124.636L136.148 109.946M147.305 124.636L148 113.879M191.787 93.7526L190.201 110.399M191.787 93.7526L171.671 92.3777M191.787 93.7526L180.981 102.542M191.787 93.7526L195.187 81.2362M191.787 93.7526L178.003 83.4221M190.201 110.399L180.981 102.542M180.981 102.542L166.43 100.804M180.981 102.542L171.671 92.3777M166.43 100.804L161.255 110.959M166.43 100.804L171.671 92.3777M166.43 100.804L159.442 93.0361M166.43 100.804L153.107 101.994M161.255 110.959L148 113.879M161.255 110.959L153.107 101.994M136.148 109.946L148 113.879M136.148 109.946L124.301 120.409M136.148 109.946L120.454 107.588M136.148 109.946L140.652 96.8845M136.148 109.946L153.107 101.994M136.148 109.946L124.58 99.116M148 113.879L153.107 101.994M153.107 101.994L145.961 90.1893M153.107 101.994L159.442 93.0361M153.107 101.994L140.652 96.8845M124.301 120.409L123.054 131.299M124.301 120.409L112.939 114.769M124.301 120.409L120.454 107.588M124.301 120.409L111.76 127.389M123.054 131.299L111.76 127.389M111.76 127.389L112.939 114.769M111.76 127.389L100.286 118.865M111.76 127.389L87.7684 126.421M112.939 114.769L100.286 118.865M112.939 114.769L96.93 104.336M112.939 114.769L109.025 100.216M112.939 114.769L120.454 107.588M100.286 118.865L82.4234 103.751M100.286 118.865L96.93 104.336M100.286 118.865L87.7684 126.421M171.671 92.3777L159.442 93.0361M171.671 92.3777L178.003 83.4221M171.671 92.3777L158.565 84.9414M171.671 92.3777L164.99 78.291M159.442 93.0361L145.961 90.1893M159.442 93.0361L158.565 84.9414M145.961 90.1893L140.652 96.8845M145.961 90.1893L158.565 84.9414M145.961 90.1893L129.692 87.2299M145.961 90.1893L141.624 79.076M145.961 90.1893L150.685 68.4987M140.652 96.8845L129.692 87.2299M140.652 96.8845L124.58 99.116M129.692 87.2299L115.742 86.6673M129.692 87.2299L130.244 72.8574M129.692 87.2299L141.624 79.076M129.692 87.2299L124.58 99.116M98.7563 79.6486L115.742 86.6673M98.7563 79.6486L73.8016 68.278M98.7563 79.6486L103.688 91.9409M98.7563 79.6486L78.9135 85.182M98.7563 79.6486L91.5034 93.7526M98.7563 79.6486L96.4742 64.012M98.7563 79.6486L112.944 72.1597M115.742 86.6673L130.244 72.8574M115.742 86.6673L124.58 99.116M115.742 86.6673L109.025 100.216M115.742 86.6673L103.688 91.9409M54.4264 57.1324L73.8016 68.278M54.4264 57.1324L25.9037 54.2546M54.4264 57.1324L38.1599 68.5669M54.4264 57.1324L56.4867 81.3976M54.4264 57.1324L46.052 42.3994M73.8016 68.278L78.9135 85.182M73.8016 68.278L76.0731 55.1266M73.8016 68.278L96.4742 64.012M73.8016 68.278L68.2307 96.8434M73.8016 68.278L56.4867 81.3976M25.9037 54.2546L9.85938 71.4582L27.0722 84.2425M25.9037 54.2546L46.052 42.3994M25.9037 54.2546L38.1599 68.5669M25.9037 54.2546L27.0722 84.2425M130.244 72.8574L134.1 57.4668M130.244 72.8574L150.685 68.4987M130.244 72.8574L116.804 56.7692M130.244 72.8574L141.624 79.076M130.244 72.8574L112.944 72.1597M134.1 57.4668L160.278 57.371L155.56 35.9918L132.992 41.9307M134.1 57.4668L116.804 56.7692M134.1 57.4668L116.174 40.6217M134.1 57.4668L132.992 41.9307M134.1 57.4668L150.685 68.4987M132.992 41.9307L119.224 18.8647M132.992 41.9307L116.174 40.6217M116.174 40.6217L119.224 18.8647M116.174 40.6217L100.375 49.7718M116.174 40.6217L100.726 30.2103M116.174 40.6217L116.804 56.7692M119.224 18.8647L100.726 30.2103M100.726 30.2103L90.0309 13.0811L78.2782 40.245M100.726 30.2103L78.2782 40.245M100.726 30.2103L100.375 49.7718M78.2782 40.245L68.2307 26.4896M78.2782 40.245L46.052 42.3994M78.2782 40.245L76.0731 55.1266M78.2782 40.245L100.375 49.7718M46.052 42.3994L76.0731 55.1266M76.0731 55.1266L100.375 49.7718M76.0731 55.1266L96.4742 64.012M100.375 49.7718L116.804 56.7692M100.375 49.7718L96.4742 64.012M38.1599 68.5669L56.4867 81.3976M38.1599 68.5669L27.0722 84.2425M56.4867 81.3976L68.2307 96.8434M56.4867 81.3976L27.0722 84.2425M56.4867 81.3976L49.886 97.8309M116.804 56.7692L96.4742 64.012M116.804 56.7692L112.944 72.1597M150.685 68.4987L158.565 84.9414M150.685 68.4987L160.832 57.3933M150.685 68.4987L141.624 79.076M150.685 68.4987L175.812 70.0906M150.685 68.4987L164.99 78.291M96.4742 64.012L112.944 72.1597M68.2307 96.8434L49.886 97.8309M68.2307 96.8434L68.9733 115.876M68.2307 96.8434L78.9135 85.182M68.2307 96.8434L82.4234 103.751M49.886 97.8309L27.0722 84.2425M49.886 97.8309L39.8926 112.974M49.886 97.8309L68.9733 115.876M27.0722 84.2425L9.85938 92.3777L24.916 102.704M27.0722 84.2425L39.8926 112.974M27.0722 84.2425L24.916 102.704M39.8926 112.974L24.916 102.704M39.8926 112.974L23.7164 112.975L24.916 102.704M39.8926 112.974L46.052 120.409L68.9733 115.876M39.8926 112.974L68.9733 115.876M68.9733 115.876L87.7684 126.421M68.9733 115.876L82.4234 103.751M87.7684 126.421L82.4234 103.751M78.9135 85.182L82.4234 103.751M78.9135 85.182L91.5034 93.7526M82.4234 103.751L91.5034 93.7526M82.4234 103.751L96.93 104.336M96.93 104.336L109.025 100.216M109.025 100.216L120.454 107.588M109.025 100.216L124.58 99.116M109.025 100.216L103.688 91.9409M120.454 107.588L124.58 99.116M158.565 84.9414L164.99 78.291M160.832 57.3933L175.812 70.0906M160.832 57.3933L180.113 51.8388L175.812 70.0906M175.812 70.0906L193.476 68.4998L195.187 81.2362M175.812 70.0906L195.187 81.2362M175.812 70.0906L178.003 83.4221M175.812 70.0906L164.99 78.291M195.187 81.2362L178.003 83.4221M178.003 83.4221L164.99 78.291M91.5034 93.7526L103.688 91.9409" stroke="url(#paint0_linear_2911_10707)" stroke-width="1.5"/>
<path d="M129.948 106.669C149.464 115.913 159.899 116.071 168.597 113.084C177.295 110.098 184.653 104.125 189.363 96.2266C194.314 87.1902 195.357 76.6761 192.746 66.6527C189.713 56.0313 182.619 47.0312 173.001 41.5994C165.871 37.4976 157.388 35.6074 149.464 36.3205C144.625 36.756 136.01 38.0686 123.74 48.7742C113.037 59.7653 111.462 64.3195 96.7913 84.0354C83.2001 102.264 76.1421 111.451 63.6883 115.913C55.1095 119.264 45.678 119.755 36.7976 117.313C27.4816 114.763 19.4965 108.741 14.484 100.485C9.47162 92.2281 7.81278 82.3651 9.8486 72.9233C14.5151 53.5282 34.1144 46.8493 37.031 45.916C46.7612 42.9062 57.2286 43.3178 66.6924 47.0826C65.0006 41.8042 64.7661 36.1668 66.0136 30.7661C67.2611 25.3655 69.9443 20.4021 73.7796 16.4004C78.919 11.477 85.6587 8.56792 92.7665 8.20483C98.3799 7.69241 104.025 8.7528 109.07 11.2672C115.606 14.6616 120.715 20.2776 123.478 27.1042" stroke="url(#paint1_linear_2911_10707)" stroke-width="12" stroke-linecap="round" stroke-linejoin="round"/>
</g>
<defs>
<linearGradient id="paint0_linear_2911_10707" x1="184.659" y1="198.718" x2="87.2609" y2="41.932" gradientUnits="userSpaceOnUse">
<stop stop-color="#224B99"/>
<stop offset="1" stop-color="#224B99" stop-opacity="0.5"/>
</linearGradient>
<linearGradient id="paint1_linear_2911_10707" x1="9" y1="21.7464" x2="223.593" y2="154.973" gradientUnits="userSpaceOnUse">
<stop offset="0.130566" stop-color="#224B99"/>
<stop offset="1" stop-color="#766AFF"/>
</linearGradient>
<clipPath id="clip0_2911_10707">
<rect width="993" height="191" fill="white"/>
</clipPath>
</defs>
</svg>
